<svg width="100" height="17" viewBox="0 0 100 17" fill="none" xmlns="http://www.w3.org/2000/svg">
<path d="M9.67352 6.98988L3.24327 0.560006C2.04665 -0.636433 0 0.211297 0 1.90271C0 10.4141 0 6.25056 0 14.7636C0 16.4561 2.04564 17.3028 3.24327 16.1063L9.67352 9.67653C10.4148 8.93384 10.4148 7.73111 9.67352 6.98988Z" fill="#EF7F1A"/>
<path d="M95.9871 4.31498C95.9871 3.76451 96.0942 3.24459 96.3083 2.75512C96.5225 2.26598 96.8089 1.83773 97.1682 1.47094C97.5275 1.10403 97.952 0.813404 98.4413 0.599505C98.9305 0.385382 99.4505 0.27832 100.001 0.27832V12.319C100.001 12.8693 99.8938 13.3893 99.6797 13.8787C99.4658 14.3679 99.1791 14.7961 98.8198 15.163C98.4606 15.5299 98.0361 15.8165 97.5471 16.0229C97.0577 16.2295 96.5377 16.3326 95.9871 16.3326H87.9826C87.4321 16.3326 86.9122 16.2295 86.4227 16.0229C85.9336 15.8165 85.5052 15.5299 85.1384 15.163C84.7715 14.7961 84.4848 14.3678 84.2785 13.8787C84.0719 13.3894 83.9688 12.8695 83.9688 12.319V0.27832C84.5191 0.27832 85.0391 0.385494 85.5283 0.599505C86.0176 0.813404 86.4421 1.10403 86.8014 1.47094C87.1607 1.83785 87.4472 2.26609 87.6613 2.75512C87.8755 3.24448 87.9825 3.76439 87.9825 4.31498V11.3099C87.9825 11.5698 88.032 11.7685 88.1317 11.906C88.2308 12.0436 88.3419 12.1432 88.4641 12.2043C88.6172 12.2809 88.7853 12.319 88.9686 12.319H94.9779C95.2377 12.319 95.4288 12.2654 95.5514 12.1583C95.6736 12.0516 95.7732 11.9366 95.8494 11.8143C95.9108 11.6617 95.9564 11.4935 95.987 11.3099V4.31498H95.9871Z" fill="#E6EAFF"/>
<path d="M22.1621 9.11613V16.389C21.6097 16.389 21.0917 16.2817 20.6084 16.0669C20.1251 15.8519 19.6991 15.5643 19.331 15.2038C18.9626 14.8431 18.6751 14.4175 18.468 13.9265C18.2608 13.4352 18.1572 12.9136 18.1572 12.3612V9.11601L11.1602 1.42904C11.513 1.07617 11.9197 0.796215 12.38 0.589057C12.8404 0.381899 13.339 0.27832 13.8763 0.27832C14.4287 0.27832 14.9427 0.389539 15.4182 0.6122C15.8938 0.834524 16.3082 1.13762 16.6611 1.52116L20.1597 5.36493L23.6353 1.52116C23.9881 1.13762 24.4062 0.834524 24.8896 0.6122C25.3729 0.389539 25.8908 0.27832 26.4432 0.27832C26.9801 0.27832 27.479 0.381899 27.9391 0.589057C28.3997 0.796215 28.8061 1.07617 29.1592 1.42904L22.1622 9.11601L22.1621 9.11613Z" fill="#E6EAFF"/>
<path d="M42.3262 7.70019L40.5488 5.92295C40.218 5.5921 39.6523 5.82644 39.6523 6.29401C39.6523 8.64667 39.6523 7.49573 39.6523 9.84895C39.6523 10.3167 40.2178 10.5507 40.5488 10.22L42.3262 8.44277C42.5312 8.23752 42.5312 7.90499 42.3262 7.70008V7.70019Z" fill="#EF7F1A"/>
<path d="M42.8811 12.3623C43.4335 12.3623 43.9552 12.4696 44.4461 12.6847C44.9371 12.8994 45.3668 13.187 45.735 13.5477C46.1034 13.9082 46.391 14.3339 46.5982 14.8251C46.8053 15.316 46.9089 15.8376 46.9089 16.39H34.8483C34.2959 16.39 33.7743 16.2865 33.283 16.0794C32.792 15.8722 32.3625 15.5846 31.9941 15.2162C31.6257 14.8479 31.3381 14.4185 31.131 13.9275C30.9238 13.4362 30.8203 12.9146 30.8203 12.3622V4.32989C30.8203 3.7775 30.9238 3.25579 31.131 2.76497C31.3381 2.27404 31.6257 1.84433 31.9941 1.47618C32.3625 1.10782 32.7919 0.816515 33.283 0.60138C33.7743 0.386696 34.2959 0.279297 34.8483 0.279297H46.9089C46.9089 0.831681 46.8053 1.3534 46.5982 1.84433C46.391 2.33549 46.1034 2.76497 45.735 3.13334C45.3669 3.50137 44.9372 3.79301 44.4461 4.0078C43.9552 4.2226 43.4335 4.32989 42.8811 4.32989H35.8378C35.5771 4.32989 35.3814 4.3837 35.2509 4.4911C35.1207 4.59838 35.0247 4.71376 34.9633 4.83632C34.9018 4.98989 34.8636 5.15077 34.8483 5.31962V6.33249H38.7667V9.83047C38.6291 9.84597 38.4891 9.85373 38.3467 9.85373H34.8483V11.3497C34.8483 11.6103 34.8981 11.8098 34.9979 11.948C35.0975 12.0861 35.2089 12.1858 35.3317 12.2473C35.485 12.3239 35.6538 12.3622 35.8378 12.3622H42.8811V12.3623Z" fill="#E6EAFF"/>
<path d="M64.6063 0.27832C64.6063 0.828794 64.5032 1.34871 64.2966 1.83785C64.0903 2.32721 63.8036 2.75523 63.4367 3.12236C63.0697 3.48927 62.6454 3.77956 62.1635 3.99379C61.682 4.20792 61.1659 4.31498 60.6155 4.31498H58.6201V16.3325C58.0696 16.3325 57.5498 16.2254 57.0604 16.0113C56.5711 15.7975 56.143 15.5069 55.7762 15.14C55.409 14.7731 55.1225 14.3447 54.9159 13.8558C54.7097 13.3665 54.6064 12.8465 54.6064 12.296V4.31498H52.5881C52.0376 4.31498 51.5176 4.20781 51.0281 3.99379C50.539 3.77956 50.1146 3.48927 49.7553 3.12236C49.396 2.75523 49.1093 2.32721 48.8954 1.83785C48.6813 1.34871 48.5742 0.828794 48.5742 0.27832H64.6063Z" fill="#E6EAFF"/>
<path d="M78.2918 12.3189C78.8423 12.3189 79.3622 12.4259 79.8517 12.6401C80.3409 12.8542 80.7692 13.1406 81.136 13.4999C81.5029 13.8592 81.7896 14.2836 81.9959 14.773C82.2025 15.262 82.3056 15.7819 82.3056 16.3324H67.3515C67.0457 16.3324 66.7896 16.2253 66.5832 16.0112C66.3766 15.7974 66.2734 15.5373 66.2734 15.2314C66.2734 14.9717 66.3575 14.7346 66.5258 14.5208L75.4479 4.31498H70.2873C69.7369 4.31498 69.217 4.20781 68.7275 3.99379C68.2383 3.77956 67.81 3.48927 67.4432 3.12236C67.0763 2.75523 66.7896 2.32721 66.5832 1.83785C66.3766 1.34871 66.2734 0.828794 66.2734 0.27832H81.2276C81.5334 0.27832 81.7895 0.385494 81.9958 0.599505C82.2024 0.813403 82.3055 1.07347 82.3055 1.37927C82.3055 1.51689 82.2825 1.64664 82.2369 1.76909C82.1908 1.89132 82.1298 1.99838 82.0532 2.09005L73.108 12.3189H78.2916H78.2918Z" fill="#E6EAFF"/>
</svg>
